<svg xmlns="http://www.w3.org/2000/svg" width="740" height="380" style="font-family:sans-serif;background:#1e293b">
<text x="406" y="22" text-anchor="middle" fill="#e2e8f0" font-size="14" font-weight="bold">Milk Balance over time</text>
<text x="406" y="36" text-anchor="middle" fill="#94a3b8" font-size="11">Balance = 0 is the target. Orange = surplus. Blue = deficit.</text>
<rect x="72" y="50" width="643" height="146.5" fill="#f9731618"/>
<rect x="72" y="196.5" width="643" height="125.5" fill="#60a5fa18"/>
<line x1="72" y1="285.3" x2="715" y2="285.3" stroke="#ffffff22" stroke-width="1" stroke-dasharray="4,3"/>
<text x="67" y="289.3" text-anchor="end" fill="#475569" font-size="10">-100</text>
<line x1="72" y1="196.5" x2="715" y2="196.5" stroke="#4ade8070" stroke-width="1.5" stroke-dasharray="none"/>
<text x="67" y="200.5" text-anchor="end" fill="#4ade80" font-size="10">0 ← target</text>
<line x1="72" y1="107.7" x2="715" y2="107.7" stroke="#ffffff22" stroke-width="1" stroke-dasharray="4,3"/>
<text x="67" y="111.7" text-anchor="end" fill="#475569" font-size="10">100</text>
<line x1="72.0" y1="50" x2="72.0" y2="322" stroke="#ffffff15" stroke-width="1"/>
<text x="72.0" y="336" text-anchor="middle" fill="#64748b" font-size="10">05:05</text>
<line x1="130.8" y1="50" x2="130.8" y2="322" stroke="#ffffff15" stroke-width="1"/>
<text x="130.8" y="336" text-anchor="middle" fill="#64748b" font-size="10">08:05</text>
<line x1="189.5" y1="50" x2="189.5" y2="322" stroke="#ffffff15" stroke-width="1"/>
<text x="189.5" y="336" text-anchor="middle" fill="#64748b" font-size="10">11:05</text>
<line x1="248.3" y1="50" x2="248.3" y2="322" stroke="#ffffff15" stroke-width="1"/>
<text x="248.3" y="336" text-anchor="middle" fill="#64748b" font-size="10">14:05</text>
<line x1="307.0" y1="50" x2="307.0" y2="322" stroke="#ffffff15" stroke-width="1"/>
<text x="307.0" y="336" text-anchor="middle" fill="#64748b" font-size="10">17:05</text>
<line x1="365.8" y1="50" x2="365.8" y2="322" stroke="#ffffff15" stroke-width="1"/>
<text x="365.8" y="336" text-anchor="middle" fill="#64748b" font-size="10">20:05</text>
<line x1="424.5" y1="50" x2="424.5" y2="322" stroke="#ffffff15" stroke-width="1"/>
<text x="424.5" y="336" text-anchor="middle" fill="#64748b" font-size="10">23:05</text>
<line x1="483.3" y1="50" x2="483.3" y2="322" stroke="#ffffff15" stroke-width="1"/>
<text x="483.3" y="336" text-anchor="middle" fill="#64748b" font-size="10">02:05</text>
<line x1="542.0" y1="50" x2="542.0" y2="322" stroke="#ffffff15" stroke-width="1"/>
<text x="542.0" y="336" text-anchor="middle" fill="#64748b" font-size="10">05:05</text>
<line x1="600.8" y1="50" x2="600.8" y2="322" stroke="#ffffff15" stroke-width="1"/>
<text x="600.8" y="336" text-anchor="middle" fill="#64748b" font-size="10">08:05</text>
<line x1="659.5" y1="50" x2="659.5" y2="322" stroke="#ffffff15" stroke-width="1"/>
<text x="659.5" y="336" text-anchor="middle" fill="#64748b" font-size="10">11:05</text>
<polyline points="72.0,76.6 73.0,78.4 74.0,80.2 74.9,82.0 75.9,83.8 76.9,85.6 77.9,87.4 78.9,89.2 79.8,91.0 80.8,92.8 81.8,94.6 82.8,96.4 83.8,98.2 84.7,100.0 85.7,101.8 86.7,103.6 87.7,105.4 88.6,107.2 89.6,108.9 90.6,110.7 91.6,112.5 92.6,114.3 93.5,116.1 94.5,117.9 95.5,119.7 96.5,121.5 97.5,123.3 98.4,125.1 99.4,126.9 100.4,128.7 101.4,130.5 102.4,132.3 103.3,134.1 104.3,135.9 105.3,137.7 106.3,139.5 107.3,141.3 108.2,143.1 109.2,144.9 110.2,146.6 111.2,148.4 112.1,150.2 113.1,152.0 114.1,153.8 115.1,155.6 116.1,157.4 117.0,159.2 118.0,161.0 119.0,162.8 120.0,164.6 121.0,166.4 121.9,168.2 122.9,170.0 123.9,171.8 124.9,173.6 125.9,175.4 126.8,177.2 127.8,179.0 128.8,180.8 129.8,182.6 130.8,184.3 131.7,186.1 132.7,187.9 133.7,189.7 134.7,191.5 135.6,193.3 136.6,195.1 137.6,196.9 138.6,198.7 139.6,200.5 140.5,202.3 141.5,204.1 142.5,205.9 143.5,207.7 144.5,209.5 145.4,211.3 146.4,213.1 147.4,214.9 148.4,216.7 149.4,129.7 150.3,131.5 151.3,133.3 152.3,135.1 153.3,136.8 154.3,138.6 155.2,140.4 156.2,142.2 157.2,144.0 158.2,145.8 159.1,147.6 160.1,149.4 161.1,151.2 162.1,153.0 163.1,154.8 164.0,156.6 165.0,158.4 166.0,160.2 167.0,162.0 168.0,163.8 168.9,165.6 169.9,167.4 170.9,169.2 171.9,171.0 172.9,172.8 173.8,174.5 174.8,176.3 175.8,178.1 176.8,179.9 177.8,181.7 178.7,183.5 179.7,185.3 180.7,187.1 181.7,188.9 182.6,190.7 183.6,192.5 184.6,194.3 185.6,196.1 186.6,197.9 187.5,199.7 188.5,201.5 189.5,203.3 190.5,205.1 191.5,206.9 192.4,208.7 193.4,210.4 194.4,212.2 195.4,214.0 196.4,215.8 197.3,217.6 198.3,219.4 199.3,221.2 200.3,223.0 201.3,224.8 202.2,226.6 203.2,228.4 204.2,230.2 205.2,143.2 206.1,145.0 207.1,146.8 208.1,148.6 209.1,150.4 210.1,152.2 211.0,154.0 212.0,155.8 213.0,157.6 214.0,159.4 215.0,161.2 215.9,163.0 216.9,164.7 217.9,166.5 218.9,168.3 219.9,170.1 220.8,171.9 221.8,173.7 222.8,175.5 223.8,177.3 224.8,179.1 225.7,180.9 226.7,182.7 227.7,184.5 228.7,186.3 229.6,188.1 230.6,189.9 231.6,191.7 232.6,193.5 233.6,195.3 234.5,197.1 235.5,198.9 236.5,200.6 237.5,202.4 238.5,204.2 239.4,206.0 240.4,207.8 241.4,209.6 242.4,211.4 243.4,213.2 244.3,215.0 245.3,216.8 246.3,218.6 247.3,220.4 248.3,222.2 249.2,224.0 250.2,225.8 251.2,227.6 252.2,229.4 253.1,142.4 254.1,144.2 255.1,146.0 256.1,147.8 257.1,149.6 258.0,151.4 259.0,153.2 260.0,154.9 261.0,156.7 262.0,158.5 262.9,160.3 263.9,162.1 264.9,163.9 265.9,165.7 266.9,167.5 267.8,169.3 268.8,171.1 269.8,172.9 270.8,174.7 271.8,176.5 272.7,178.3 273.7,180.1 274.7,181.9 275.7,183.7 276.7,185.5 277.6,187.3 278.6,189.1 279.6,190.9 280.6,192.6 281.5,194.4 282.5,196.2 283.5,198.0 284.5,199.8 285.5,201.6 286.4,203.4 287.4,205.2 288.4,207.0 289.4,208.8 290.4,210.6 291.3,212.4 292.3,214.2 293.3,216.0 294.3,217.8 295.3,219.6 296.2,221.4 297.2,223.2 298.2,225.0 299.2,226.8 300.2,228.5 301.1,230.3 302.1,232.1 303.1,233.9 304.1,235.7 305.0,237.5 306.0,239.3 307.0,241.1 308.0,242.9 309.0,244.7 309.9,246.5 310.9,248.3 311.9,250.1 312.9,251.9 313.9,253.7 314.8,255.5 315.8,168.5 316.8,170.3 317.8,172.1 318.8,173.9 319.7,175.7 320.7,177.5 321.7,179.3 322.7,181.1 323.7,182.8 324.6,184.6 325.6,186.4 326.6,188.2 327.6,190.0 328.5,191.8 329.5,193.6 330.5,195.4 331.5,197.2 332.5,199.0 333.4,200.8 334.4,202.6 335.4,204.4 336.4,206.2 337.4,208.0 338.3,209.8 339.3,211.6 340.3,213.4 341.3,215.2 342.3,217.0 343.2,218.7 344.2,220.5 345.2,222.3 346.2,224.1 347.2,225.9 348.1,227.7 349.1,229.5 350.1,231.3 351.1,233.1 352.0,234.9 353.0,236.7 354.0,238.5 355.0,240.3 356.0,242.1 356.9,243.9 357.9,245.7 358.9,158.7 359.9,160.5 360.9,162.3 361.8,164.1 362.8,165.9 363.8,167.7 364.8,169.5 365.8,171.3 366.7,173.0 367.7,174.8 368.7,176.6 369.7,178.4 370.7,180.2 371.6,182.0 372.6,183.8 373.6,185.6 374.6,187.4 375.5,189.2 376.5,191.0 377.5,192.8 378.5,194.6 379.5,196.4 380.4,198.2 381.4,200.0 382.4,201.8 383.4,203.6 384.4,205.4 385.3,207.2 386.3,208.9 387.3,210.7 388.3,212.5 389.3,214.3 390.2,216.1 391.2,217.9 392.2,219.7 393.2,221.5 394.2,223.3 395.1,225.1 396.1,226.9 397.1,228.7 398.1,141.7 399.0,143.5 400.0,145.3 401.0,147.1 402.0,148.9 403.0,150.7 403.9,152.5 404.9,154.3 405.9,156.1 406.9,157.9 407.9,159.7 408.8,161.5 409.8,163.2 410.8,165.0 411.8,166.8 412.8,168.6 413.7,170.4 414.7,172.2 415.7,174.0 416.7,175.8 417.7,177.6 418.6,179.4 419.6,181.2 420.6,183.0 421.6,184.8 422.5,186.6 423.5,188.4 424.5,190.2 425.5,192.0 426.5,193.8 427.4,195.6 428.4,197.4 429.4,199.1 430.4,200.9 431.4,202.7 432.3,204.5 433.3,206.3 434.3,208.1 435.3,209.9 436.3,211.7 437.2,213.5 438.2,215.3 439.2,217.1 440.2,218.9 441.2,220.7 442.1,222.5 443.1,224.3 444.1,226.1 445.1,227.9 446.0,229.7 447.0,231.5 448.0,233.3 449.0,235.1 450.0,117.0 450.9,118.8 451.9,120.6 452.9,122.4 453.9,124.2 454.9,126.0 455.8,127.8 456.8,129.6 457.8,131.3 458.8,133.1 459.8,134.9 460.7,136.7 461.7,138.5 462.7,140.3 463.7,142.1 464.7,143.9 465.6,145.7 466.6,147.5 467.6,149.3 468.6,151.1 469.6,152.9 470.5,154.7 471.5,156.5 472.5,158.3 473.5,160.1 474.4,161.9 475.4,163.7 476.4,165.5 477.4,167.2 478.4,169.0 479.3,170.8 480.3,172.6 481.3,174.4 482.3,176.2 483.3,178.0 484.2,179.8 485.2,181.6 486.2,183.4 487.2,185.2 488.2,187.0 489.1,188.8 490.1,190.6 491.1,192.4 492.1,194.2 493.1,196.0 494.0,197.8 495.0,199.6 496.0,201.4 497.0,203.2 497.9,204.9 498.9,206.7 499.9,208.5 500.9,210.3 501.9,212.1 502.8,213.9 503.8,215.7 504.8,217.5 505.8,219.3 506.8,221.1 507.7,222.9 508.7,224.7 509.7,226.5 510.7,228.3 511.7,230.1 512.6,231.9 513.6,233.7 514.6,235.5 515.6,237.3 516.6,239.1 517.5,240.9 518.5,242.6 519.5,244.4 520.5,246.2 521.4,128.2 522.4,130.0 523.4,131.8 524.4,133.6 525.4,135.3 526.3,137.1 527.3,138.9 528.3,140.7 529.3,142.5 530.3,144.3 531.2,146.1 532.2,147.9 533.2,149.7 534.2,151.5 535.2,153.3 536.1,155.1 537.1,156.9 538.1,158.7 539.1,160.5 540.1,162.3 541.0,164.1 542.0,165.9 543.0,167.7 544.0,169.5 544.9,171.3 545.9,173.0 546.9,174.8 547.9,176.6 548.9,178.4 549.8,180.2 550.8,182.0 551.8,183.8 552.8,185.6 553.8,187.4 554.7,189.2 555.7,191.0 556.7,192.8 557.7,194.6 558.7,196.4 559.6,198.2 560.6,200.0 561.6,201.8 562.6,203.6 563.6,205.4 564.5,207.2 565.5,209.0 566.5,210.7 567.5,212.5 568.4,214.3 569.4,216.1 570.4,217.9 571.4,219.7 572.4,221.5 573.3,223.3 574.3,225.1 575.3,226.9 576.3,228.7 577.3,230.5 578.2,232.3 579.2,234.1 580.2,235.9 581.2,237.7 582.2,239.5 583.1,241.3 584.1,243.1 585.1,244.9 586.1,246.7 587.1,248.4 588.0,250.2 589.0,252.0 590.0,253.8 591.0,255.6 591.9,257.4 592.9,259.2 593.9,261.0 594.9,262.8 595.9,264.6 596.8,266.4 597.8,268.2 598.8,181.2 599.8,183.0 600.8,184.8 601.7,186.6 602.7,188.4 603.7,190.2 604.7,192.0 605.7,193.8 606.6,195.6 607.6,197.4 608.6,199.2 609.6,200.9 610.6,202.7 611.5,204.5 612.5,206.3 613.5,208.1 614.5,209.9 615.4,211.7 616.4,213.5 617.4,215.3 618.4,217.1 619.4,218.9 620.3,220.7 621.3,222.5 622.3,224.3 623.3,226.1 624.3,227.9 625.2,229.7 626.2,231.5 627.2,233.3 628.2,235.1 629.2,236.9 630.1,238.6 631.1,240.4 632.1,242.2 633.1,244.0 634.1,245.8 635.0,247.6 636.0,249.4 637.0,251.2 638.0,253.0 638.9,254.8 639.9,256.6 640.9,258.4 641.9,260.2 642.9,262.0 643.8,263.8 644.8,265.6 645.8,267.4 646.8,180.4 647.8,182.2 648.7,184.0 649.7,185.8 650.7,187.6 651.7,189.4 652.7,191.1 653.6,192.9 654.6,194.7 655.6,196.5 656.6,198.3 657.6,200.1 658.5,201.9 659.5,203.7 660.5,205.5 661.5,207.3 662.5,209.1 663.4,210.9 664.4,212.7 665.4,214.5 666.4,216.3 667.3,218.1 668.3,219.9 669.3,221.7 670.3,223.5 671.3,225.3 672.2,227.1 673.2,228.8 674.2,230.6 675.2,232.4 676.2,234.2 677.1,236.0 678.1,237.8 679.1,239.6 680.1,241.4 681.1,243.2 682.0,245.0 683.0,246.8 684.0,248.6 685.0,250.4 686.0,252.2 686.9,254.0 687.9,255.8 688.9,257.6 689.9,259.4 690.8,261.2 691.8,263.0 692.8,264.7 693.8,266.5 694.8,268.3 695.7,270.1 696.7,271.9 697.7,273.7 698.7,275.5 699.7,277.3 700.6,279.1 701.6,280.9 702.6,282.7 703.6,284.5 704.6,286.3 705.5,288.1 706.5,289.9 707.5,291.7 708.5,293.5 709.5,295.3 710.4,297.1 711.4,298.9 712.4,300.7 713.4,302.4 714.3,304.2" fill="none" stroke="#93c5fd" stroke-width="2.5" stroke-linejoin="round"/>
<line x1="72.0" y1="76.6" x2="72.0" y2="78.4" stroke="#34d39970" stroke-width="1.5"/>
<circle cx="72.0" cy="78.4" r="3" fill="#34d399"/>
<text x="72.0" y="71.4" text-anchor="middle" fill="#34d39990" font-size="9">+135</text>
<line x1="149.0" y1="214.9" x2="149.0" y2="129.7" stroke="#34d39970" stroke-width="1.5"/>
<circle cx="149.0" cy="129.7" r="3" fill="#34d399"/>
<text x="149.0" y="122.7" text-anchor="middle" fill="#34d39990" font-size="9">+100</text>
<line x1="205.2" y1="230.2" x2="205.2" y2="145.0" stroke="#34d39970" stroke-width="1.5"/>
<circle cx="205.2" cy="145.0" r="3" fill="#34d399"/>
<text x="205.2" y="138.0" text-anchor="middle" fill="#34d39990" font-size="9">+100</text>
<line x1="253.1" y1="229.4" x2="253.1" y2="144.2" stroke="#34d39970" stroke-width="1.5"/>
<circle cx="253.1" cy="144.2" r="3" fill="#34d399"/>
<text x="253.1" y="137.2" text-anchor="middle" fill="#34d39990" font-size="9">+100</text>
<line x1="315.2" y1="253.7" x2="315.2" y2="168.5" stroke="#34d39970" stroke-width="1.5"/>
<circle cx="315.2" cy="168.5" r="3" fill="#34d399"/>
<text x="315.2" y="161.5" text-anchor="middle" fill="#34d39990" font-size="9">+100</text>
<line x1="358.9" y1="245.7" x2="358.9" y2="160.5" stroke="#34d39970" stroke-width="1.5"/>
<circle cx="358.9" cy="160.5" r="3" fill="#34d399"/>
<text x="358.9" y="153.5" text-anchor="middle" fill="#34d39990" font-size="9">+100</text>
<line x1="398.1" y1="226.9" x2="398.1" y2="141.7" stroke="#34d39970" stroke-width="1.5"/>
<circle cx="398.1" cy="141.7" r="3" fill="#34d399"/>
<text x="398.1" y="134.7" text-anchor="middle" fill="#34d39990" font-size="9">+100</text>
<line x1="449.6" y1="233.3" x2="449.6" y2="117.0" stroke="#34d39970" stroke-width="1.5"/>
<circle cx="449.6" cy="117.0" r="3" fill="#34d399"/>
<text x="449.6" y="110.0" text-anchor="middle" fill="#34d39990" font-size="9">+135</text>
<line x1="520.8" y1="244.4" x2="520.8" y2="128.2" stroke="#34d39970" stroke-width="1.5"/>
<circle cx="520.8" cy="128.2" r="3" fill="#34d399"/>
<text x="520.8" y="121.2" text-anchor="middle" fill="#34d39990" font-size="9">+135</text>
<line x1="598.2" y1="266.4" x2="598.2" y2="181.2" stroke="#34d39970" stroke-width="1.5"/>
<circle cx="598.2" cy="181.2" r="3" fill="#34d399"/>
<text x="598.2" y="174.2" text-anchor="middle" fill="#34d39990" font-size="9">+100</text>
<line x1="646.5" y1="265.6" x2="646.5" y2="180.4" stroke="#34d39970" stroke-width="1.5"/>
<circle cx="646.5" cy="180.4" r="3" fill="#34d399"/>
<text x="646.5" y="173.4" text-anchor="middle" fill="#34d39990" font-size="9">+100</text>
<line x1="72" y1="50" x2="72" y2="322" stroke="#475569" stroke-width="1.5"/>
<line x1="72" y1="322" x2="715" y2="322" stroke="#475569" stroke-width="1.5"/>
<text x="14" y="190" transform="rotate(-90,14,190)" text-anchor="middle" fill="#64748b" font-size="11">ml</text>
<text x="406" y="350" text-anchor="middle" fill="#64748b" font-size="11">Time of day (Mon 05:05 → Tue 13:54)</text>
</svg>